<svg width="230" height="362" viewBox="0 0 230 362" fill="none" xmlns="http://www.w3.org/2000/svg">
<path d="M220.931 361.966H9.06921C4.19421 361.966 0.241211 358.013 0.241211 353.138V8.86194C0.241211 3.98694 4.19421 0.0339355 9.06921 0.0339355H220.931C225.806 0.0339355 229.759 3.98694 229.759 8.86194V353.138C229.759 358.013 225.806 361.966 220.931 361.966Z" fill="#5A5D6F"/>
<path d="M35.5521 344.31C30.6771 344.31 26.7241 340.357 26.7241 335.482V256.034C26.7241 251.159 30.6771 247.206 35.5521 247.206C40.4271 247.206 44.3801 251.159 44.3801 256.034V335.482C44.3791 340.358 40.4271 344.31 35.5521 344.31Z" fill="#444455"/>
<path d="M44.379 291.345H26.724C21.849 291.345 17.896 287.392 17.896 282.517V273.689C17.896 268.814 21.849 264.861 26.724 264.861H44.379C49.254 264.861 53.207 268.814 53.207 273.689V282.517C53.207 287.392 49.254 291.345 44.379 291.345Z" fill="#929CB4"/>
<path d="M88.517 344.31C83.642 344.31 79.689 340.357 79.689 335.482V256.034C79.689 251.159 83.642 247.206 88.517 247.206C93.392 247.206 97.345 251.159 97.345 256.034V335.482C97.345 340.358 93.392 344.31 88.517 344.31Z" fill="#444455"/>
<path d="M97.3448 317.828H79.6898C74.8148 317.828 70.8618 313.875 70.8618 309V300.172C70.8618 295.297 74.8148 291.344 79.6898 291.344H97.3448C102.22 291.344 106.173 295.297 106.173 300.172V309C106.172 313.875 102.22 317.828 97.3448 317.828Z" fill="#929CB4"/>
<path d="M141.483 344.31C136.608 344.31 132.655 340.357 132.655 335.482V256.034C132.655 251.159 136.608 247.206 141.483 247.206C146.358 247.206 150.311 251.159 150.311 256.034V335.482C150.31 340.358 146.358 344.31 141.483 344.31Z" fill="#444455"/>
<path d="M150.31 300.172H132.655C127.78 300.172 123.827 296.219 123.827 291.344V282.516C123.827 277.641 127.78 273.688 132.655 273.688H150.31C155.185 273.688 159.138 277.641 159.138 282.516V291.344C159.138 296.22 155.185 300.172 150.31 300.172Z" fill="#929CB4"/>
<path d="M194.448 344.31C189.573 344.31 185.62 340.357 185.62 335.482V256.034C185.62 251.159 189.573 247.206 194.448 247.206C199.323 247.206 203.276 251.159 203.276 256.034V335.482C203.276 340.358 199.323 344.31 194.448 344.31Z" fill="#444455"/>
<path d="M203.276 335.483H185.621C180.746 335.483 176.793 331.53 176.793 326.655V317.827C176.793 312.952 180.746 308.999 185.621 308.999H203.276C208.151 308.999 212.104 312.952 212.104 317.827V326.655C212.103 331.53 208.151 335.483 203.276 335.483Z" fill="#929CB4"/>
<path d="M44.379 229.552H26.724C21.849 229.552 17.896 225.599 17.896 220.724C17.896 215.849 21.849 211.896 26.724 211.896H44.379C49.254 211.896 53.207 215.849 53.207 220.724C53.207 225.599 49.254 229.552 44.379 229.552Z" fill="#FF6464"/>
<path d="M44.379 194.241H26.724C21.849 194.241 17.896 190.288 17.896 185.413C17.896 180.538 21.849 176.585 26.724 176.585H44.379C49.254 176.585 53.207 180.538 53.207 185.413C53.207 190.289 49.254 194.241 44.379 194.241Z" fill="#62B9FF"/>
<path d="M97.3448 229.552H79.6898C74.8148 229.552 70.8618 225.599 70.8618 220.724C70.8618 215.849 74.8148 211.896 79.6898 211.896H97.3448C102.22 211.896 106.173 215.849 106.173 220.724C106.172 225.599 102.22 229.552 97.3448 229.552Z" fill="#FF6464"/>
<path d="M97.3448 194.241H79.6898C74.8148 194.241 70.8618 190.288 70.8618 185.413C70.8618 180.538 74.8148 176.585 79.6898 176.585H97.3448C102.22 176.585 106.173 180.538 106.173 185.413C106.172 190.289 102.22 194.241 97.3448 194.241Z" fill="#62B9FF"/>
<path d="M150.31 229.552H132.655C127.78 229.552 123.827 225.599 123.827 220.724C123.827 215.849 127.78 211.896 132.655 211.896H150.31C155.185 211.896 159.138 215.849 159.138 220.724C159.138 225.599 155.185 229.552 150.31 229.552Z" fill="#FF6464"/>
<path d="M150.31 194.241H132.655C127.78 194.241 123.827 190.288 123.827 185.413C123.827 180.538 127.78 176.585 132.655 176.585H150.31C155.185 176.585 159.138 180.538 159.138 185.413C159.138 190.289 155.185 194.241 150.31 194.241Z" fill="#62B9FF"/>
<path d="M203.276 229.552H185.621C180.746 229.552 176.793 225.599 176.793 220.724C176.793 215.849 180.746 211.896 185.621 211.896H203.276C208.151 211.896 212.104 215.849 212.104 220.724C212.103 225.599 208.151 229.552 203.276 229.552Z" fill="#FF6464"/>
<path d="M203.276 194.241H185.621C180.746 194.241 176.793 190.288 176.793 185.413C176.793 180.538 180.746 176.585 185.621 176.585H203.276C208.151 176.585 212.104 180.538 212.104 185.413C212.103 190.289 208.151 194.241 203.276 194.241Z" fill="#62B9FF"/>
<path d="M35.552 150.103C42.8648 150.103 48.793 144.175 48.793 136.862C48.793 129.549 42.8648 123.621 35.552 123.621C28.2392 123.621 22.311 129.549 22.311 136.862C22.311 144.175 28.2392 150.103 35.552 150.103Z" fill="#6F7588"/>
<path d="M88.5169 150.103C95.8297 150.103 101.758 144.175 101.758 136.862C101.758 129.549 95.8297 123.621 88.5169 123.621C81.2041 123.621 75.2759 129.549 75.2759 136.862C75.2759 144.175 81.2041 150.103 88.5169 150.103Z" fill="#6F7588"/>
<path d="M88.5169 114.793C95.8297 114.793 101.758 108.865 101.758 101.552C101.758 94.2392 95.8297 88.311 88.5169 88.311C81.2041 88.311 75.2759 94.2392 75.2759 101.552C75.2759 108.865 81.2041 114.793 88.5169 114.793Z" fill="#444455"/>
<path d="M141.483 79.482C148.795 79.482 154.724 73.5538 154.724 66.241C154.724 58.9282 148.795 53 141.483 53C134.17 53 128.242 58.9282 128.242 66.241C128.242 73.5538 134.17 79.482 141.483 79.482Z" fill="#444455"/>
<path d="M141.483 150.103C148.796 150.103 154.724 144.175 154.724 136.862C154.724 129.549 148.796 123.621 141.483 123.621C134.17 123.621 128.242 129.549 128.242 136.862C128.242 144.175 134.17 150.103 141.483 150.103Z" fill="#6F7588"/>
<path d="M141.483 114.793C148.796 114.793 154.724 108.865 154.724 101.552C154.724 94.2392 148.796 88.311 141.483 88.311C134.17 88.311 128.242 94.2392 128.242 101.552C128.242 108.865 134.17 114.793 141.483 114.793Z" fill="#444455"/>
<path d="M194.448 79.482C201.761 79.482 207.689 73.5538 207.689 66.241C207.689 58.9282 201.761 53 194.448 53C187.135 53 181.207 58.9282 181.207 66.241C181.207 73.5538 187.135 79.482 194.448 79.482Z" fill="#444455"/>
<path d="M194.448 150.103C201.761 150.103 207.689 144.175 207.689 136.862C207.689 129.549 201.761 123.621 194.448 123.621C187.135 123.621 181.207 129.549 181.207 136.862C181.207 144.175 187.135 150.103 194.448 150.103Z" fill="#6F7588"/>
<path d="M194.448 114.793C201.761 114.793 207.689 108.865 207.689 101.552C207.689 94.2392 201.761 88.311 194.448 88.311C187.135 88.311 181.207 94.2392 181.207 101.552C181.207 108.865 187.135 114.793 194.448 114.793Z" fill="#444455"/>
<path d="M35.552 44.1719C42.8648 44.1719 48.793 38.2437 48.793 30.9309C48.793 23.6181 42.8648 17.6899 35.552 17.6899C28.2392 17.6899 22.311 23.6181 22.311 30.9309C22.311 38.2437 28.2392 44.1719 35.552 44.1719Z" fill="#444455"/>
<path d="M88.5169 44.1719C95.8297 44.1719 101.758 38.2437 101.758 30.9309C101.758 23.6181 95.8297 17.6899 88.5169 17.6899C81.2041 17.6899 75.2759 23.6181 75.2759 30.9309C75.2759 38.2437 81.2041 44.1719 88.5169 44.1719Z" fill="#444455"/>
<path d="M141.483 44.1719C148.796 44.1719 154.724 38.2437 154.724 30.9309C154.724 23.6181 148.796 17.6899 141.483 17.6899C134.17 17.6899 128.242 23.6181 128.242 30.9309C128.242 38.2437 134.17 44.1719 141.483 44.1719Z" fill="#444455"/>
<path d="M194.448 44.1719C201.761 44.1719 207.689 38.2437 207.689 30.9309C207.689 23.6181 201.761 17.6899 194.448 17.6899C187.135 17.6899 181.207 23.6181 181.207 30.9309C181.207 38.2437 187.135 44.1719 194.448 44.1719Z" fill="#444455"/>
</svg>
