<?xml version="1.0" encoding="iso-8859-1"?>
<!-- Generator: Adobe Illustrator 19.0.0, SVG Export Plug-In . SVG Version: 6.00 Build 0)  -->
<svg version="1.1" id="Layer_1" xmlns="http://www.w3.org/2000/svg" xmlns:xlink="http://www.w3.org/1999/xlink" x="0px" y="0px"
	 viewBox="0 0 512 512" style="enable-background:new 0 0 512 512;" xml:space="preserve">
<path style="fill:#6F7588;" d="M494.345,454.621H17.655C7.904,454.621,0,446.717,0,436.966V75.034
	c0-9.751,7.904-17.655,17.655-17.655h476.69c9.751,0,17.655,7.904,17.655,17.655v361.931
	C512,446.717,504.096,454.621,494.345,454.621z"/>
<path style="fill:#5A5D6F;" d="M361.931,436.966H150.069c-4.875,0-8.828-3.953-8.828-8.828V83.862c0-4.875,3.953-8.828,8.828-8.828
	h211.862c4.875,0,8.828,3.953,8.828,8.828v344.276C370.759,433.013,366.806,436.966,361.931,436.966z"/>
<path style="fill:#444455;" d="M176.552,419.31L176.552,419.31c-4.875,0-8.828-3.953-8.828-8.828v-79.448
	c0-4.875,3.953-8.828,8.828-8.828l0,0c4.875,0,8.828,3.953,8.828,8.828v79.448C185.379,415.358,181.427,419.31,176.552,419.31z"/>
<path style="fill:#929CB4;" d="M185.379,366.345h-17.655c-4.875,0-8.828-3.953-8.828-8.828v-8.828c0-4.875,3.953-8.828,8.828-8.828
	h17.655c4.875,0,8.828,3.953,8.828,8.828v8.828C194.207,362.392,190.254,366.345,185.379,366.345z"/>
<path style="fill:#B3E671;" d="M114.759,419.31h-8.828c-4.875,0-8.828-3.953-8.828-8.828v-8.828c0-4.875,3.953-8.828,8.828-8.828
	h8.828c4.875,0,8.828,3.953,8.828,8.828v8.828C123.586,415.358,119.634,419.31,114.759,419.31z"/>
<g>
	<path style="fill:#FF6464;" d="M70.621,419.31h-8.828c-4.875,0-8.828-3.953-8.828-8.828v-8.828c0-4.875,3.953-8.828,8.828-8.828
		h8.828c4.875,0,8.828,3.953,8.828,8.828v8.828C79.448,415.358,75.496,419.31,70.621,419.31z"/>
	<path style="fill:#FF6464;" d="M114.759,375.172h-8.828c-4.875,0-8.828-3.953-8.828-8.828v-8.828c0-4.875,3.953-8.828,8.828-8.828
		h8.828c4.875,0,8.828,3.953,8.828,8.828v8.828C123.586,371.22,119.634,375.172,114.759,375.172z"/>
</g>
<path style="fill:#62B9FF;" d="M70.621,375.172h-8.828c-4.875,0-8.828-3.953-8.828-8.828v-8.828c0-4.875,3.953-8.828,8.828-8.828
	h8.828c4.875,0,8.828,3.953,8.828,8.828v8.828C79.448,371.22,75.496,375.172,70.621,375.172z"/>
<g>
	<path style="fill:#FF6464;" d="M114.759,242.759h-8.828c-4.875,0-8.828-3.953-8.828-8.828v-8.828c0-4.875,3.953-8.828,8.828-8.828
		h8.828c4.875,0,8.828,3.953,8.828,8.828v8.828C123.586,238.806,119.634,242.759,114.759,242.759z"/>
	<path style="fill:#FF6464;" d="M70.621,242.759h-8.828c-4.875,0-8.828-3.953-8.828-8.828v-8.828c0-4.875,3.953-8.828,8.828-8.828
		h8.828c4.875,0,8.828,3.953,8.828,8.828v8.828C79.448,238.806,75.496,242.759,70.621,242.759z"/>
</g>
<g>
	<path style="fill:#62B9FF;" d="M114.759,198.621h-8.828c-4.875,0-8.828-3.953-8.828-8.828v-8.828c0-4.875,3.953-8.828,8.828-8.828
		h8.828c4.875,0,8.828,3.953,8.828,8.828v8.828C123.586,194.668,119.634,198.621,114.759,198.621z"/>
	<path style="fill:#62B9FF;" d="M70.621,198.621h-8.828c-4.875,0-8.828-3.953-8.828-8.828v-8.828c0-4.875,3.953-8.828,8.828-8.828
		h8.828c4.875,0,8.828,3.953,8.828,8.828v8.828C79.448,194.668,75.496,198.621,70.621,198.621z"/>
</g>
<path style="fill:#444455;" d="M229.517,419.31L229.517,419.31c-4.875,0-8.828-3.953-8.828-8.828v-79.448
	c0-4.875,3.953-8.828,8.828-8.828l0,0c4.875,0,8.828,3.953,8.828,8.828v79.448C238.345,415.358,234.392,419.31,229.517,419.31z"/>
<path style="fill:#929CB4;" d="M238.345,392.828H220.69c-4.875,0-8.828-3.953-8.828-8.828v-8.828c0-4.875,3.953-8.828,8.828-8.828
	h17.655c4.875,0,8.828,3.953,8.828,8.828V384C247.172,388.875,243.22,392.828,238.345,392.828z"/>
<path style="fill:#444455;" d="M282.483,419.31L282.483,419.31c-4.875,0-8.828-3.953-8.828-8.828v-79.448
	c0-4.875,3.953-8.828,8.828-8.828l0,0c4.875,0,8.828,3.953,8.828,8.828v79.448C291.31,415.358,287.358,419.31,282.483,419.31z"/>
<path style="fill:#929CB4;" d="M291.31,375.172h-17.655c-4.875,0-8.828-3.953-8.828-8.828v-8.828c0-4.875,3.953-8.828,8.828-8.828
	h17.655c4.875,0,8.828,3.953,8.828,8.828v8.828C300.138,371.22,296.185,375.172,291.31,375.172z"/>
<path style="fill:#444455;" d="M335.448,419.31L335.448,419.31c-4.875,0-8.828-3.953-8.828-8.828v-79.448
	c0-4.875,3.953-8.828,8.828-8.828l0,0c4.875,0,8.828,3.953,8.828,8.828v79.448C344.276,415.358,340.323,419.31,335.448,419.31z"/>
<path style="fill:#929CB4;" d="M344.276,410.483h-17.655c-4.875,0-8.828-3.953-8.828-8.828v-8.828c0-4.875,3.953-8.828,8.828-8.828
	h17.655c4.875,0,8.828,3.953,8.828,8.828v8.828C353.103,406.53,349.151,410.483,344.276,410.483z"/>
<path style="fill:#FF6464;" d="M185.379,304.552h-17.655c-4.875,0-8.828-3.953-8.828-8.828l0,0c0-4.875,3.953-8.828,8.828-8.828
	h17.655c4.875,0,8.828,3.953,8.828,8.828l0,0C194.207,300.599,190.254,304.552,185.379,304.552z"/>
<path style="fill:#62B9FF;" d="M185.379,269.241h-17.655c-4.875,0-8.828-3.953-8.828-8.828l0,0c0-4.875,3.953-8.828,8.828-8.828
	h17.655c4.875,0,8.828,3.953,8.828,8.828l0,0C194.207,265.289,190.254,269.241,185.379,269.241z"/>
<path style="fill:#FF6464;" d="M238.345,304.552H220.69c-4.875,0-8.828-3.953-8.828-8.828l0,0c0-4.875,3.953-8.828,8.828-8.828
	h17.655c4.875,0,8.828,3.953,8.828,8.828l0,0C247.172,300.599,243.22,304.552,238.345,304.552z"/>
<path style="fill:#62B9FF;" d="M238.345,269.241H220.69c-4.875,0-8.828-3.953-8.828-8.828l0,0c0-4.875,3.953-8.828,8.828-8.828
	h17.655c4.875,0,8.828,3.953,8.828,8.828l0,0C247.172,265.289,243.22,269.241,238.345,269.241z"/>
<path style="fill:#FF6464;" d="M291.31,304.552h-17.655c-4.875,0-8.828-3.953-8.828-8.828l0,0c0-4.875,3.953-8.828,8.828-8.828
	h17.655c4.875,0,8.828,3.953,8.828,8.828l0,0C300.138,300.599,296.185,304.552,291.31,304.552z"/>
<path style="fill:#62B9FF;" d="M291.31,269.241h-17.655c-4.875,0-8.828-3.953-8.828-8.828l0,0c0-4.875,3.953-8.828,8.828-8.828
	h17.655c4.875,0,8.828,3.953,8.828,8.828l0,0C300.138,265.289,296.185,269.241,291.31,269.241z"/>
<path style="fill:#FF6464;" d="M344.276,304.552h-17.655c-4.875,0-8.828-3.953-8.828-8.828l0,0c0-4.875,3.953-8.828,8.828-8.828
	h17.655c4.875,0,8.828,3.953,8.828,8.828l0,0C353.103,300.599,349.151,304.552,344.276,304.552z"/>
<path style="fill:#62B9FF;" d="M344.276,269.241h-17.655c-4.875,0-8.828-3.953-8.828-8.828l0,0c0-4.875,3.953-8.828,8.828-8.828
	h17.655c4.875,0,8.828,3.953,8.828,8.828l0,0C353.103,265.289,349.151,269.241,344.276,269.241z"/>
<circle style="fill:#6F7588;" cx="176.552" cy="211.862" r="13.241"/>
<circle style="fill:#444455;" cx="66.207" cy="317.793" r="13.241"/>
<circle style="fill:#FF6464;" cx="26.483" cy="410.483" r="8.828"/>
<g>
	<circle style="fill:#B3E671;" cx="26.483" cy="375.172" r="8.828"/>
	<circle style="fill:#B3E671;" cx="26.483" cy="339.862" r="8.828"/>
	<circle style="fill:#B3E671;" cx="26.483" cy="304.552" r="8.828"/>
	<circle style="fill:#B3E671;" cx="26.483" cy="269.241" r="8.828"/>
	<circle style="fill:#B3E671;" cx="26.483" cy="233.931" r="8.828"/>
</g>
<g>
	<circle style="fill:#FF6464;" cx="26.483" cy="198.621" r="8.828"/>
	<circle style="fill:#FF6464;" cx="26.483" cy="163.31" r="8.828"/>
</g>
<g>
	<circle style="fill:#444455;" cx="26.483" cy="128" r="8.828"/>
	<circle style="fill:#444455;" cx="26.483" cy="92.69" r="8.828"/>
</g>
<circle style="fill:#FF6464;" cx="485.517" cy="410.483" r="8.828"/>
<g>
	<circle style="fill:#B3E671;" cx="485.517" cy="375.172" r="8.828"/>
	<circle style="fill:#B3E671;" cx="485.517" cy="339.862" r="8.828"/>
	<circle style="fill:#B3E671;" cx="485.517" cy="304.552" r="8.828"/>
	<circle style="fill:#B3E671;" cx="485.517" cy="269.241" r="8.828"/>
	<circle style="fill:#B3E671;" cx="485.517" cy="233.931" r="8.828"/>
</g>
<g>
	<circle style="fill:#FF6464;" cx="485.517" cy="198.621" r="8.828"/>
	<circle style="fill:#FF6464;" cx="485.517" cy="163.31" r="8.828"/>
</g>
<g>
	<circle style="fill:#444455;" cx="485.517" cy="128" r="8.828"/>
	<circle style="fill:#444455;" cx="485.517" cy="92.69" r="8.828"/>
	<circle style="fill:#444455;" cx="110.345" cy="317.793" r="13.241"/>
	<circle style="fill:#444455;" cx="66.207" cy="273.655" r="13.241"/>
	<circle style="fill:#444455;" cx="110.345" cy="273.655" r="13.241"/>
	<circle style="fill:#444455;" cx="401.655" cy="406.069" r="13.241"/>
</g>
<g>
	<circle style="fill:#5A5D6F;" cx="445.793" cy="406.069" r="13.241"/>
	<circle style="fill:#5A5D6F;" cx="445.793" cy="361.931" r="13.241"/>
	<circle style="fill:#5A5D6F;" cx="445.793" cy="317.793" r="13.241"/>
	<circle style="fill:#5A5D6F;" cx="445.793" cy="273.655" r="13.241"/>
	<circle style="fill:#5A5D6F;" cx="445.793" cy="229.517" r="13.241"/>
	<circle style="fill:#5A5D6F;" cx="445.793" cy="97.103" r="13.241"/>
</g>
<g>
	<circle style="fill:#444455;" cx="401.655" cy="361.931" r="13.241"/>
	<circle style="fill:#444455;" cx="401.655" cy="317.793" r="13.241"/>
	<circle style="fill:#444455;" cx="401.655" cy="273.655" r="13.241"/>
	<circle style="fill:#444455;" cx="401.655" cy="229.517" r="13.241"/>
	<circle style="fill:#444455;" cx="401.655" cy="97.103" r="13.241"/>
</g>
<g>
	<circle style="fill:#5A5D6F;" cx="66.207" cy="141.241" r="13.241"/>
	<circle style="fill:#5A5D6F;" cx="110.345" cy="141.241" r="13.241"/>
</g>
<g>
	<circle style="fill:#444455;" cx="66.207" cy="97.103" r="13.241"/>
	<circle style="fill:#444455;" cx="110.345" cy="97.103" r="13.241"/>
	<circle style="fill:#444455;" cx="176.552" cy="141.241" r="13.241"/>
	<circle style="fill:#444455;" cx="176.552" cy="176.552" r="13.241"/>
	<circle style="fill:#444455;" cx="229.517" cy="141.241" r="13.241"/>
</g>
<circle style="fill:#6F7588;" cx="229.517" cy="211.862" r="13.241"/>
<g>
	<circle style="fill:#444455;" cx="229.517" cy="176.552" r="13.241"/>
	<circle style="fill:#444455;" cx="282.483" cy="141.241" r="13.241"/>
</g>
<circle style="fill:#6F7588;" cx="282.483" cy="211.862" r="13.241"/>
<g>
	<circle style="fill:#444455;" cx="282.483" cy="176.552" r="13.241"/>
	<circle style="fill:#444455;" cx="335.448" cy="141.241" r="13.241"/>
</g>
<circle style="fill:#6F7588;" cx="335.448" cy="211.862" r="13.241"/>
<g>
	<circle style="fill:#444455;" cx="335.448" cy="176.552" r="13.241"/>
	<circle style="fill:#444455;" cx="176.552" cy="105.931" r="13.241"/>
	<circle style="fill:#444455;" cx="229.517" cy="105.931" r="13.241"/>
	<circle style="fill:#444455;" cx="282.483" cy="105.931" r="13.241"/>
	<circle style="fill:#444455;" cx="335.448" cy="105.931" r="13.241"/>
</g>
<g>
	<path style="fill:#5A5D6F;" d="M401.655,198.621L401.655,198.621c-7.313,0-13.241-5.929-13.241-13.241v-44.138
		c0-7.313,5.929-13.241,13.241-13.241l0,0c7.313,0,13.241,5.929,13.241,13.241v44.138
		C414.897,192.692,408.968,198.621,401.655,198.621z"/>
	<path style="fill:#5A5D6F;" d="M445.793,198.621L445.793,198.621c-7.313,0-13.241-5.929-13.241-13.241v-44.138
		c0-7.313,5.929-13.241,13.241-13.241l0,0c7.313,0,13.241,5.929,13.241,13.241v44.138
		C459.034,192.692,453.106,198.621,445.793,198.621z"/>
</g>
<g>
</g>
<g>
</g>
<g>
</g>
<g>
</g>
<g>
</g>
<g>
</g>
<g>
</g>
<g>
</g>
<g>
</g>
<g>
</g>
<g>
</g>
<g>
</g>
<g>
</g>
<g>
</g>
<g>
</g>
</svg>
