<svg width="650" height="298" viewBox="0 0 650 298" fill="none" xmlns="http://www.w3.org/2000/svg">
<rect width="650" height="298" rx="100" fill="#455A64"/>
<path d="M127.667 191.667C168.904 191.667 202.334 158.237 202.334 117C202.334 75.7626 168.904 42.333 127.667 42.333C86.4296 42.333 53 75.7626 53 117C53 158.237 86.4296 191.667 127.667 191.667Z" fill="#90A4AE"/>
<path d="M532.667 191.667C573.904 191.667 607.334 158.237 607.334 117C607.334 75.7626 573.904 42.333 532.667 42.333C491.43 42.333 458 75.7626 458 117C458 158.237 491.43 191.667 532.667 191.667Z" fill="#90A4AE"/>
<rect x="202" y="213" width="256" height="21" rx="10" fill="#CFD8DC"/>
<path d="M362 191.667C356.109 191.667 351.333 186.891 351.333 181V53C351.333 47.109 356.109 42.333 362 42.333C367.891 42.333 372.667 47.109 372.667 53V181C372.667 186.891 367.891 191.667 362 191.667Z" fill="#FAFAFA"/>
<path d="M234.001 191.667C228.11 191.667 223.334 186.891 223.334 181V53C223.334 47.109 228.11 42.333 234.001 42.333C239.892 42.333 244.668 47.109 244.668 53V181C244.668 186.891 239.892 191.667 234.001 191.667Z" fill="#FAFAFA"/>
<path d="M426 191.667C420.109 191.667 415.333 186.891 415.333 181V53C415.333 47.109 420.109 42.333 426 42.333C431.891 42.333 436.667 47.109 436.667 53V181C436.667 186.891 431.891 191.667 426 191.667Z" fill="#FAFAFA"/>
<path d="M298.001 191.667C292.11 191.667 287.334 186.891 287.334 181V53C287.334 47.109 292.11 42.333 298.001 42.333C303.892 42.333 308.668 47.109 308.668 53V181C308.668 186.891 303.892 191.667 298.001 191.667Z" fill="#FAFAFA"/>
<path d="M383.333 170.333H340.666C334.775 170.333 329.999 165.557 329.999 159.666C329.999 153.775 334.775 148.999 340.666 148.999H383.333C389.224 148.999 394 153.775 394 159.666C394 165.558 389.224 170.333 383.333 170.333Z" fill="#2196F3"/>
<path d="M255.334 170.333H212.667C206.776 170.333 202 165.557 202 159.666C202 153.775 206.776 148.999 212.667 148.999H255.334C261.225 148.999 266.001 153.775 266.001 159.666C266.001 165.558 261.225 170.333 255.334 170.333Z" fill="#2196F3"/>
<path d="M447.333 85H404.666C398.775 85 393.999 80.224 393.999 74.333C393.999 68.442 398.775 63.666 404.666 63.666H447.333C453.224 63.666 458 68.442 458 74.333C458 80.224 453.224 85 447.333 85Z" fill="#2196F3"/>
<path d="M319.334 85H276.667C270.776 85 266 80.224 266 74.333C266 68.442 270.776 63.666 276.667 63.666H319.334C325.225 63.666 330.001 68.442 330.001 74.333C330.001 80.224 325.225 85 319.334 85Z" fill="#2196F3"/>
<path d="M404.667 255.667C398.776 255.667 394 250.891 394 245V202.333C394 196.442 398.776 191.666 404.667 191.666C410.558 191.666 415.334 196.442 415.334 202.333V245C415.333 250.891 410.558 255.667 404.667 255.667Z" fill="#F44336"/>
<path d="M532.667 127.667C531.269 127.689 529.884 127.398 528.614 126.814C527.281 126.362 526.1 125.55 525.201 124.467C523.126 122.543 521.964 119.83 522.001 117C521.971 115.601 522.263 114.215 522.854 112.947C523.295 111.614 524.1 110.432 525.179 109.534C526.077 108.451 527.259 107.638 528.592 107.187C532.552 105.556 537.106 106.483 540.112 109.534C541.19 110.437 542.002 111.617 542.459 112.947C543.05 114.215 543.342 115.602 543.312 117C543.357 119.831 542.193 122.547 540.112 124.467C539.217 125.554 538.034 126.367 536.699 126.814C535.436 127.397 534.058 127.689 532.667 127.667Z" fill="#FAFAFA"/>
<path d="M127.667 127.667C126.269 127.689 124.884 127.398 123.614 126.814C122.281 126.362 121.1 125.55 120.201 124.467C116.077 120.528 115.927 113.992 119.866 109.869C119.975 109.755 120.087 109.643 120.201 109.534C121.099 108.451 122.281 107.638 123.614 107.187C127.574 105.556 132.128 106.483 135.134 109.534C139.258 113.74 139.192 120.494 134.985 124.618C133.028 126.536 130.408 127.628 127.667 127.667Z" fill="#FAFAFA"/>
<path d="M106.334 234.333C100.443 234.262 95.7262 229.429 95.7972 223.538C95.8302 220.79 96.9222 218.161 98.8462 216.199C102.994 212.133 109.632 212.133 113.779 216.199C117.903 220.405 117.837 227.159 113.631 231.283C111.679 233.198 109.067 234.29 106.334 234.333Z" fill="#F44336"/>
<path d="M149.001 234.333C143.11 234.262 138.393 229.429 138.464 223.538C138.497 220.79 139.589 218.161 141.513 216.199C145.661 212.133 152.299 212.133 156.446 216.199C160.57 220.405 160.504 227.159 156.298 231.283C154.346 233.198 151.734 234.29 149.001 234.333Z" fill="#F44336"/>
<path d="M511.333 234.333C509.935 234.355 508.55 234.064 507.28 233.48C505.947 233.028 504.766 232.216 503.867 231.133C499.743 227.194 499.593 220.658 503.532 216.535C503.641 216.421 503.753 216.309 503.867 216.2C504.765 215.117 505.947 214.304 507.28 213.853C511.24 212.222 515.794 213.149 518.8 216.2C522.924 220.406 522.858 227.16 518.651 231.284C516.694 233.203 514.074 234.295 511.333 234.333Z" fill="#F44336"/>
<path d="M554 234.333C552.602 234.355 551.217 234.064 549.947 233.48C548.614 233.028 547.433 232.216 546.534 231.133C542.41 227.194 542.26 220.658 546.199 216.535C546.308 216.421 546.42 216.309 546.534 216.2C547.432 215.117 548.614 214.304 549.947 213.853C553.907 212.222 558.461 213.149 561.467 216.2C565.591 220.406 565.525 227.16 561.318 231.284C559.361 233.203 556.74 234.295 554 234.333Z" fill="#F44336"/>
</svg>
