<svg width="512" height="300" viewBox="0 0 512 300" fill="none" xmlns="http://www.w3.org/2000/svg">
<path d="M96 0.666992H416C469.019 0.666992 512 43.648 512 96.667V203.334C512 256.353 469.019 299.334 416 299.334H96C42.981 299.334 0 256.353 0 203.334V96.667C0 43.647 42.981 0.666992 96 0.666992Z" fill="#455A64"/>
<path d="M117.333 192.667C158.57 192.667 192 159.237 192 118C192 76.7626 158.57 43.333 117.333 43.333C76.0956 43.333 42.666 76.7626 42.666 118C42.666 159.237 76.0956 192.667 117.333 192.667Z" fill="#90A4AE"/>
<path d="M394.667 192.667C435.904 192.667 469.334 159.237 469.334 118C469.334 76.7626 435.904 43.333 394.667 43.333C353.43 43.333 320 76.7626 320 118C320 159.237 353.43 192.667 394.667 192.667Z" fill="#90A4AE"/>
<path d="M309.333 235.333H202.667C196.776 235.333 192 230.557 192 224.666C192 218.775 196.776 213.999 202.667 213.999H309.334C315.225 213.999 320.001 218.775 320.001 224.666C320 230.558 315.224 235.333 309.333 235.333Z" fill="#CFD8DC"/>
<path d="M224 192.667C218.109 192.667 213.333 187.891 213.333 182V54C213.333 48.109 218.109 43.333 224 43.333C229.891 43.333 234.667 48.109 234.667 54V182C234.667 187.891 229.891 192.667 224 192.667Z" fill="#FAFAFA"/>
<path d="M288 192.667C282.109 192.667 277.333 187.891 277.333 182V54C277.333 48.109 282.109 43.333 288 43.333C293.891 43.333 298.667 48.109 298.667 54V182C298.667 187.891 293.891 192.667 288 192.667Z" fill="#FAFAFA"/>
<path d="M245.333 171.333H202.666C196.775 171.333 191.999 166.557 191.999 160.666C191.999 154.775 196.775 149.999 202.666 149.999H245.333C251.224 149.999 256 154.775 256 160.666C256 166.558 251.224 171.333 245.333 171.333Z" fill="#2196F3"/>
<path d="M309.333 86H266.666C260.775 86 255.999 81.224 255.999 75.333C255.999 69.442 260.775 64.666 266.666 64.666H309.333C315.224 64.666 320 69.442 320 75.333C320 81.224 315.224 86 309.333 86Z" fill="#2196F3"/>
<path d="M266.667 256.667C260.776 256.667 256 251.891 256 246V203.333C256 197.442 260.776 192.666 266.667 192.666C272.558 192.666 277.334 197.442 277.334 203.333V246C277.333 251.891 272.558 256.667 266.667 256.667Z" fill="#F44336"/>
<path d="M394.667 128.667C393.269 128.689 391.884 128.398 390.614 127.814C389.281 127.362 388.1 126.55 387.201 125.467C385.126 123.543 383.964 120.83 384.001 118C383.971 116.601 384.263 115.215 384.854 113.947C385.295 112.614 386.1 111.432 387.179 110.534C388.077 109.451 389.259 108.638 390.592 108.187C394.552 106.556 399.106 107.483 402.112 110.534C403.19 111.437 404.002 112.617 404.459 113.947C405.05 115.215 405.342 116.602 405.312 118C405.357 120.831 404.193 123.547 402.112 125.467C401.217 126.554 400.034 127.367 398.699 127.814C397.436 128.397 396.058 128.689 394.667 128.667Z" fill="#FAFAFA"/>
<path d="M117.333 128.667C115.935 128.689 114.55 128.398 113.28 127.814C111.947 127.362 110.766 126.55 109.867 125.467C105.743 121.528 105.593 114.992 109.532 110.869C109.641 110.755 109.753 110.643 109.867 110.534C110.765 109.451 111.947 108.638 113.28 108.187C117.24 106.556 121.794 107.483 124.8 110.534C128.924 114.74 128.858 121.494 124.651 125.618C122.694 127.536 120.074 128.628 117.333 128.667Z" fill="#FAFAFA"/>
<path d="M96.0002 235.333C90.1092 235.262 85.3922 230.429 85.4632 224.538C85.4962 221.79 86.5882 219.161 88.5122 217.199C92.6602 213.133 99.2982 213.133 103.445 217.199C107.569 221.405 107.503 228.159 103.297 232.283C101.345 234.198 98.7332 235.29 96.0002 235.333Z" fill="#F44336"/>
<path d="M138.667 235.333C132.776 235.262 128.059 230.429 128.13 224.538C128.163 221.79 129.255 219.161 131.179 217.199C135.327 213.133 141.965 213.133 146.112 217.199C150.236 221.405 150.17 228.159 145.964 232.283C144.012 234.198 141.4 235.29 138.667 235.333Z" fill="#F44336"/>
<path d="M373.333 235.333C371.935 235.355 370.55 235.064 369.28 234.48C367.947 234.028 366.766 233.216 365.867 232.133C361.743 228.194 361.593 221.658 365.532 217.535C365.641 217.421 365.753 217.309 365.867 217.2C366.765 216.117 367.947 215.304 369.28 214.853C373.24 213.222 377.794 214.149 380.8 217.2C384.924 221.406 384.858 228.16 380.651 232.284C378.694 234.203 376.074 235.295 373.333 235.333Z" fill="#F44336"/>
<path d="M416 235.333C414.602 235.355 413.217 235.064 411.947 234.48C410.614 234.028 409.433 233.216 408.534 232.133C404.41 228.194 404.26 221.658 408.199 217.535C408.308 217.421 408.42 217.309 408.534 217.2C409.432 216.117 410.614 215.304 411.947 214.853C415.907 213.222 420.461 214.149 423.467 217.2C427.591 221.406 427.525 228.16 423.318 232.284C421.361 234.203 418.74 235.295 416 235.333Z" fill="#F44336"/>
</svg>
